<?xml version="1.0" encoding="UTF-8"?>
<svg width="17px" height="22px" viewBox="0 0 17 22" version="1.1" xmlns="http://www.w3.org/2000/svg" xmlns:xlink="http://www.w3.org/1999/xlink">
    <!-- Generator: Sketch 45.2 (43514) - http://www.bohemiancoding.com/sketch -->
    <title>ic_distance</title>
    <desc>Created with Sketch.</desc>
    <defs></defs>
    <g id="Page-1" stroke="none" stroke-width="1" fill="none" fill-rule="evenodd">
        <g id="02.2.1-Events-Archive---Event" transform="translate(-384.000000, -499.000000)" fill="#000000">
            <g id="Content" transform="translate(353.000000, 84.000000)">
                <g id="Distance" transform="translate(31.000000, 413.000000)">
                    <path d="M7.888,19.968 L0.904,18.6 L1.288,16.584 L6.208,17.568 L7.792,9.456 L5.968,10.152 L5.968,13.584 L4,13.584 L4,8.904 L9.208,6.696 C9.30400048,6.696 9.43599916,6.68000016 9.604,6.648 C9.77200084,6.61599984 9.90399952,6.6 10,6.6 C10.6720034,6.6 11.2319978,6.92799672 11.68,7.584 L12.664,9.168 C13.0800021,9.8880036 13.6639962,10.4639978 14.416,10.896 C15.1840038,11.3440022 16.0399953,11.568 16.984,11.568 L16.984,13.584 C15.8959946,13.584 14.8720048,13.3600022 13.912,12.912 C12.9679953,12.4639978 12.1680033,11.8560038 11.512,11.088 L10.888,14.088 L13,16.056 L13,23.568 L10.984,23.568 L10.984,17.568 L8.872,15.6 L7.888,19.968 Z M11.512,6.072 C10.9679973,6.072 10.496002,5.872002 10.096,5.472 C9.695998,5.071998 9.496,4.60000272 9.496,4.056 C9.496,3.51199728 9.695998,3.04800192 10.096,2.664 C10.496002,2.27999808 10.9679973,2.088 11.512,2.088 C12.0560027,2.088 12.5199981,2.28399804 12.904,2.676 C13.2880019,3.06800196 13.48,3.52799736 13.48,4.056 C13.48,4.58400264 13.284002,5.05199796 12.892,5.46 C12.499998,5.86800204 12.0400026,6.072 11.512,6.072 Z" id="ic_distance"></path>
                </g>
            </g>
        </g>
    </g>
</svg>