<?xml version="1.0" encoding="UTF-8"?>
<svg width="20px" height="21px" viewBox="0 0 20 21" version="1.1" xmlns="http://www.w3.org/2000/svg" xmlns:xlink="http://www.w3.org/1999/xlink">
    <!-- Generator: Sketch 45.2 (43514) - http://www.bohemiancoding.com/sketch -->
    <title>ic_feedback</title>
    <desc>Created with Sketch.</desc>
    <defs></defs>
    <g id="Page-1" stroke="none" stroke-width="1" fill="none" fill-rule="evenodd">
        <g id="02.2.1-Events-Archive---Event" transform="translate(-384.000000, -735.000000)" fill="#000000">
            <g id="Content" transform="translate(353.000000, 84.000000)">
                <g id="Feedback" transform="translate(31.000000, 648.000000)">
                    <path d="M15.016,13.6 C15.016,13.8720014 14.916001,14.103999 14.716,14.296 C14.515999,14.488001 14.2720014,14.584 13.984,14.584 L4,14.584 L0.016,18.616 L0.016,4.6 C0.016,4.32799864 0.11199904,4.09600096 0.304,3.904 C0.49600096,3.71199904 0.72799864,3.616 1,3.616 L13.984,3.616 C14.2720014,3.616 14.515999,3.71199904 14.716,3.904 C14.916001,4.09600096 15.016,4.32799864 15.016,4.6 L15.016,13.6 Z M19,7.6 C19.2720014,7.6 19.503999,7.69599904 19.696,7.888 C19.888001,8.08000096 19.984,8.31199864 19.984,8.584 L19.984,23.584 L16,19.6 L4.984,19.6 C4.71199864,19.6 4.48000096,19.504001 4.288,19.312 C4.09599904,19.119999 4,18.8880014 4,18.616 L4,16.6 L16.984,16.6 L16.984,7.6 L19,7.6 Z" id="ic_feedback"></path>
                </g>
            </g>
        </g>
    </g>
</svg>