<?xml version="1.0" encoding="UTF-8"?>
<svg width="20px" height="28px" viewBox="0 0 20 28" version="1.1" xmlns="http://www.w3.org/2000/svg" xmlns:xlink="http://www.w3.org/1999/xlink">
    <!-- Generator: Sketch 45.2 (43514) - http://www.bohemiancoding.com/sketch -->
    <title>ic_steps</title>
    <desc>Created with Sketch.</desc>
    <defs></defs>
    <g id="Page-1" stroke="none" stroke-width="1" fill="none" fill-rule="evenodd">
        <g id="02.2.1-Events-Archive---Event" transform="translate(-817.000000, -496.000000)" fill-rule="nonzero" fill="#000000">
            <g id="Content" transform="translate(353.000000, 84.000000)">
                <g id="Steps" transform="translate(462.000000, 412.000000)">
                    <path d="M10.3574745,5.6671875 C10.7180288,6.30817308 10.6379056,7.42989784 10.1972281,8.07088341 C8.11402494,11.2357497 9.75655048,14.200308 10.3174129,15.0816632 C10.4375977,15.2419096 10.5177209,15.4422175 10.5577825,15.6825871 C11.198768,19.6086238 7.47303936,19.488439 6.3913762,16.6440655 C6.3913762,16.5238807 6.3513146,16.3636343 6.311253,16.2434495 C5.91063702,13.399076 4.18798828,11.0354417 3.94761869,7.46995944 C3.94761869,6.66872746 8.87519531,2.822814 10.3574745,5.6671875 Z M10.5177209,4.94607873 C9.67695528,4.94607873 8.99538011,4.03133311 8.99538011,2.9029372 C8.99538011,1.77454129 9.67695528,0.859795673 10.5177209,0.859795673 C11.3584864,0.859795673 12.0400616,1.77454129 12.0400616,2.9029372 C12.0400616,4.03133311 11.3584864,4.94607873 10.5177209,4.94607873 Z M7.976189,4.40477842 C7.4522416,4.49112062 6.92833988,3.95939514 6.80602176,3.21713631 C6.68370364,2.47487748 7.00928851,1.80316363 7.53323592,1.71682143 C8.05718333,1.63047923 8.58108505,2.16220472 8.70340317,2.90446355 C8.82572128,3.64672237 8.50013641,4.31843622 7.976189,4.40477842 Z M6.17708671,4.89438324 C5.72780814,5.08168811 5.15654053,4.73687564 4.9011248,4.12422304 C4.64570906,3.51157044 4.80286595,2.86307678 5.25214452,2.67577191 C5.7014231,2.48846704 6.27269071,2.83327951 6.52810644,3.44593211 C6.78352217,4.05858471 6.62636529,4.70707837 6.17708671,4.89438324 Z M4.76707068,5.9618005 C4.37905515,6.21739544 3.78823889,6.00519778 3.44744563,5.48784374 C3.10665236,4.97048971 3.14493357,4.34389075 3.5329491,4.0882958 C3.92096462,3.83270085 4.51178088,4.04489852 4.85257415,4.56225256 C5.19336741,5.07960659 5.1550862,5.70620555 4.76707068,5.9618005 Z M3.57067911,7.09958996 C3.26202964,7.35128862 2.75109937,7.23561814 2.42948441,6.84123271 C2.10786945,6.44684728 2.09735885,5.92309263 2.40600832,5.67139397 C2.71465778,5.4196953 3.22558805,5.53536578 3.54720301,5.92975122 C3.86881797,6.32413665 3.87932858,6.84789129 3.57067911,7.09958996 Z M13.6425255,14.1201848 C15.1248047,11.2758113 20.0523813,15.1217248 20.0523813,15.9229567 C19.8120117,19.488439 18.089363,21.8520733 17.688747,24.6964468 C17.6486854,24.8166316 17.6086238,24.976878 17.6086238,25.0970628 C16.5269606,27.9414363 12.801232,28.0616211 13.4422175,24.0955228 C13.4822791,23.8952148 13.5624023,23.6548453 13.6825871,23.4945989 C14.2434495,22.6132437 15.8859751,19.6486854 13.8027719,16.4838191 C13.3620944,15.8828951 13.2819712,14.7611704 13.6425255,14.1201848 Z M13.4822791,13.399076 C12.6415136,13.399076 11.9599384,12.4843304 11.9599384,11.3559345 C11.9599384,10.2275386 12.6415136,9.31279297 13.4822791,9.31279297 C14.3230447,9.31279297 15.0046199,10.2275386 15.0046199,11.3559345 C15.0046199,12.4843304 14.3230447,13.399076 13.4822791,13.399076 Z M17.2119338,11.6797524 C17.0896157,12.4220112 16.565714,12.9537367 16.0417666,12.8673945 C15.5178192,12.7810523 15.1922343,12.1093385 15.3145524,11.3670796 C15.4368706,10.6248208 15.9607723,10.0930953 16.4847197,10.1794375 C17.0086671,10.2657797 17.334252,10.9374936 17.2119338,11.6797524 Z M19.1088746,12.5669726 C18.8534588,13.1796252 18.2821912,13.5244376 17.8329127,13.3371328 C17.3836341,13.1498279 17.2264772,12.5013342 17.4818929,11.8886816 C17.7373087,11.276029 18.3085763,10.9312166 18.7578549,11.1185214 C19.2071334,11.3058263 19.3642903,11.95432 19.1088746,12.5669726 Z M20.5572135,13.9419988 C20.2164203,14.4593529 19.625604,14.6715505 19.2375885,14.4159556 C18.849573,14.1603606 18.8112918,13.5337617 19.152085,13.0164076 C19.4928783,12.4990536 20.0836945,12.2868559 20.4717101,12.5424509 C20.8597256,12.7980458 20.8980068,13.4246448 20.5572135,13.9419988 Z M21.5770857,15.2979557 C21.2554707,15.6923412 20.7445405,15.8080116 20.435891,15.556313 C20.1272415,15.3046143 20.1377521,14.7808597 20.4593671,14.3864742 C20.780982,13.9920888 21.2919123,13.8764183 21.6005618,14.128117 C21.9092113,14.3798157 21.8987006,14.9035703 21.5770857,15.2979557 Z" id="ic_steps"></path>
                </g>
            </g>
        </g>
    </g>
</svg>