<?xml version="1.0" encoding="UTF-8"?>
<svg width="18px" height="22px" viewBox="0 0 18 22" version="1.1" xmlns="http://www.w3.org/2000/svg" xmlns:xlink="http://www.w3.org/1999/xlink">
    <!-- Generator: Sketch 45.2 (43514) - http://www.bohemiancoding.com/sketch -->
    <title>ic_time</title>
    <desc>Created with Sketch.</desc>
    <defs></defs>
    <g id="Page-1" stroke="none" stroke-width="1" fill="none" fill-rule="evenodd">
        <g id="02.2.1-Events-Archive---Event" transform="translate(-385.000000, -623.000000)" fill="#000000">
            <g id="Content" transform="translate(353.000000, 84.000000)">
                <g id="Time" transform="translate(32.000000, 537.000000)">
                    <path d="M9,21.616 C10.2800064,21.616 11.4559946,21.2960032 12.528,20.656 C13.5840053,20.0319969 14.4239969,19.1840054 15.048,18.112 C15.6720031,17.0399946 15.984,15.8640064 15.984,14.584 C15.984,13.3039936 15.6720031,12.1280054 15.048,11.056 C14.4239969,9.99999472 13.5840053,9.16000312 12.528,8.536 C11.4559946,7.91199688 10.2800064,7.6 9,7.6 C7.7199936,7.6 6.54400536,7.91199688 5.472,8.536 C4.41599472,9.16000312 3.57600312,9.99999472 2.952,11.056 C2.32799688,12.1280054 2.016,13.3039936 2.016,14.584 C2.016,15.8640064 2.32799688,17.0399946 2.952,18.112 C3.57600312,19.1840054 4.41599472,20.0319969 5.472,20.656 C6.54400536,21.2960032 7.7199936,21.616 9,21.616 Z M16.032,9.016 C16.6560031,9.80000392 17.1359983,10.6559954 17.472,11.584 C17.8240018,12.5440048 18,13.5439948 18,14.584 C18,16.2160082 17.5920041,17.727993 16.776,19.12 C15.975996,20.4800068 14.8960068,21.559996 13.536,22.36 C12.143993,23.1760041 10.6320082,23.584 9,23.584 C7.36799184,23.584 5.85600696,23.1760041 4.464,22.36 C3.1039932,21.559996 2.024004,20.4800068 1.224,19.12 C0.40799592,17.727993 0,16.2160082 0,14.584 C0,12.9519918 0.40799592,11.440007 1.224,10.048 C2.024004,8.6879932 3.1039932,7.608004 4.464,6.808 C5.85600696,5.99199592 7.36799184,5.584 9,5.584 C10.0240051,5.584 11.031995,5.76799816 12.024,6.136 C12.9520046,6.48800176 13.815996,6.97599688 14.616,7.6 L16.032,6.136 C16.4800022,6.50400184 16.9519975,6.97599712 17.448,7.552 L16.032,9.016 Z M8.016,15.616 L8.016,9.616 L9.984,9.616 L9.984,15.616 L8.016,15.616 Z M12,2.584 L12,4.6 L6,4.6 L6,2.584 L12,2.584 Z" id="ic_time"></path>
                </g>
            </g>
        </g>
    </g>
</svg>